<?xml version="1.0" encoding="UTF-8" standalone="no" ?>
<!DOCTYPE svg PUBLIC "-//W3C//DTD SVG 1.1//EN" "http://www.w3.org/Graphics/SVG/1.1/DTD/svg11.dtd">
<svg xmlns="http://www.w3.org/2000/svg" xmlns:xlink="http://www.w3.org/1999/xlink" version="1.1" width="1080" height="1080" viewBox="0 0 1080 1080" xml:space="preserve">
<desc>Created with Fabric.js 4.2.0</desc>
<defs>
</defs>
<rect x="0" y="0" width="100%" height="100%" fill="transparent"></rect>
<g transform="matrix(1 0 0 1 540 540)" id="c38df11c-32ee-4fbc-97d5-5542bb02d22d"  >
<rect style="stroke: none; stroke-width: 1; stroke-dasharray: none; stroke-linecap: butt; stroke-dashoffset: 0; stroke-linejoin: miter; stroke-miterlimit: 4; fill: rgb(255,255,255); fill-rule: nonzero; opacity: 1;" vector-effect="non-scaling-stroke"  x="-540" y="-540" rx="0" ry="0" width="1080" height="1080" />
</g>
<g transform="matrix(Infinity NaN NaN Infinity 0 0)" id="3472d503-eb02-4f2f-a635-4838c11969f3"  >
</g>
<g transform="matrix(2.87 0 0 2.87 710.06 512.79)"  >
<g style="" vector-effect="non-scaling-stroke"   >
		<g transform="matrix(1.33 0 0 1.33 0 0)"  >
<rect style="stroke: none; stroke-width: 1; stroke-dasharray: none; stroke-linecap: butt; stroke-dashoffset: 0; stroke-linejoin: miter; stroke-miterlimit: 4; fill: rgb(255,255,255); fill-rule: nonzero; opacity: 1;" vector-effect="non-scaling-stroke"  x="-187.5" y="-187.4999955" rx="0" ry="0" width="375" height="374.999991" />
</g>
		<g transform="matrix(1.33 0 0 1.33 0 0)"  >
<rect style="stroke: none; stroke-width: 1; stroke-dasharray: none; stroke-linecap: butt; stroke-dashoffset: 0; stroke-linejoin: miter; stroke-miterlimit: 4; fill: rgb(255,255,255); fill-rule: nonzero; opacity: 1;" vector-effect="non-scaling-stroke"  x="-187.5" y="-187.4999955" rx="0" ry="0" width="375" height="374.999991" />
</g>
		<g transform="matrix(1.33 0 0 1.33 0 0)"  >
<rect style="stroke: none; stroke-width: 1; stroke-dasharray: none; stroke-linecap: butt; stroke-dashoffset: 0; stroke-linejoin: miter; stroke-miterlimit: 4; fill: rgb(255,20,20); fill-rule: nonzero; opacity: 1;" vector-effect="non-scaling-stroke"  x="-187.5" y="-187.4999955" rx="0" ry="0" width="375" height="374.999991" />
</g>
		<g transform="matrix(1.33 0 0 1.33 -156.14 10.79)"  >
<path style="stroke: none; stroke-width: 1; stroke-dasharray: none; stroke-linecap: butt; stroke-dashoffset: 0; stroke-linejoin: miter; stroke-miterlimit: 4; fill: rgb(255,255,255); fill-rule: nonzero; opacity: 1;" vector-effect="non-scaling-stroke"  transform=" translate(-70.4, -195.59)" d="M 80.109375 195.589844 C 80.109375 196.226562 80.046875 196.855469 79.921875 197.480469 C 79.796875 198.101562 79.613281 198.707031 79.367188 199.292969 C 79.125 199.882812 78.824219 200.4375 78.46875 200.96875 C 78.117188 201.496094 77.714844 201.984375 77.261719 202.433594 C 76.8125 202.882812 76.320312 203.285156 75.789062 203.636719 C 75.261719 203.992188 74.699219 204.289062 74.113281 204.53125 C 73.523438 204.777344 72.914062 204.960938 72.289062 205.082031 C 71.664062 205.207031 71.03125 205.269531 70.394531 205.269531 C 69.757812 205.269531 69.125 205.207031 68.5 205.082031 C 67.875 204.960938 67.265625 204.777344 66.679688 204.53125 C 66.089844 204.289062 65.527344 203.992188 65 203.636719 C 64.46875 203.285156 63.976562 202.882812 63.527344 202.433594 C 63.074219 201.984375 62.671875 201.496094 62.320312 200.96875 C 61.964844 200.4375 61.664062 199.882812 61.421875 199.292969 C 61.175781 198.707031 60.992188 198.101562 60.867188 197.480469 C 60.746094 196.855469 60.683594 196.226562 60.683594 195.589844 C 60.683594 194.957031 60.746094 194.324219 60.867188 193.703125 C 60.992188 193.078125 61.175781 192.472656 61.421875 191.886719 C 61.664062 191.300781 61.964844 190.742188 62.320312 190.214844 C 62.671875 189.683594 63.074219 189.195312 63.527344 188.746094 C 63.976562 188.296875 64.46875 187.894531 65 187.542969 C 65.527344 187.191406 66.089844 186.890625 66.679688 186.648438 C 67.265625 186.40625 67.875 186.222656 68.5 186.097656 C 69.125 185.972656 69.757812 185.914062 70.394531 185.914062 C 71.03125 185.914062 71.664062 185.972656 72.289062 186.097656 C 72.914062 186.222656 73.523438 186.40625 74.113281 186.648438 C 74.699219 186.890625 75.261719 187.191406 75.789062 187.542969 C 76.320312 187.894531 76.8125 188.296875 77.261719 188.746094 C 77.714844 189.195312 78.117188 189.683594 78.46875 190.214844 C 78.824219 190.742188 79.125 191.300781 79.367188 191.886719 C 79.613281 192.472656 79.796875 193.078125 79.921875 193.703125 C 80.046875 194.324219 80.109375 194.957031 80.109375 195.589844 Z M 80.109375 195.589844" stroke-linecap="round" />
</g>
		<g transform="matrix(1.33 0 0 1.33 -155.3 10.77)" clip-path="url(#CLIPPATH_3)"  >
<clipPath id="CLIPPATH_3" >
	<path transform="matrix(1 0 0 1 0.04 0.02) translate(-71.06, -195.59)" id="clip1" d="M 30.847656 154.925781 L 111.277344 154.925781 L 111.277344 236.257812 L 30.847656 236.257812 Z M 30.847656 154.925781" stroke-linecap="round" />
</clipPath>
<path style="stroke: none; stroke-width: 1; stroke-dasharray: none; stroke-linecap: butt; stroke-dashoffset: 0; stroke-linejoin: miter; stroke-miterlimit: 4; fill: rgb(255,255,255); fill-rule: nonzero; opacity: 1;" vector-effect="non-scaling-stroke"  transform=" translate(-71.02, -195.58)" d="M 70.394531 154.949219 C 51.390625 154.949219 35.421875 167.902344 30.894531 185.429688 C 30.851562 185.589844 30.828125 185.75 30.824219 185.914062 C 30.824219 186.976562 31.691406 187.847656 32.769531 187.847656 L 49.214844 187.847656 C 49.59375 187.847656 49.945312 187.746094 50.265625 187.542969 C 50.585938 187.335938 50.820312 187.058594 50.976562 186.714844 C 50.976562 186.714844 51 186.667969 51.011719 186.640625 C 54.402344 179.351562 61.804688 174.292969 70.402344 174.292969 C 82.203125 174.292969 91.769531 183.824219 91.769531 195.582031 C 91.769531 207.34375 82.207031 216.871094 70.40625 216.871094 C 61.8125 216.871094 54.410156 211.8125 51.015625 204.523438 C 51.003906 204.5 50.980469 204.453125 50.980469 204.453125 C 50.667969 203.765625 49.976562 203.320312 49.21875 203.320312 L 32.769531 203.320312 C 31.695312 203.320312 30.828125 204.183594 30.828125 205.253906 C 30.832031 205.417969 30.851562 205.578125 30.894531 205.738281 C 35.425781 223.265625 51.394531 236.21875 70.398438 236.21875 C 92.925781 236.214844 111.21875 218.023438 111.21875 195.578125 C 111.21875 173.132812 92.957031 154.933594 70.433594 154.933594 Z M 70.394531 154.949219" stroke-linecap="round" />
</g>
		<g transform="matrix(1.33 0 0 1.33 -48.31 10.63)"  >
<path style="stroke: none; stroke-width: 1; stroke-dasharray: none; stroke-linecap: butt; stroke-dashoffset: 0; stroke-linejoin: miter; stroke-miterlimit: 4; fill: rgb(255,255,255); fill-rule: nonzero; opacity: 1;" vector-effect="non-scaling-stroke"  transform=" translate(-14.25, 12.96)" d="M 27.210938 -5.183594 L 10.140625 -5.183594 L 26.433594 -21.476562 C 26.921875 -21.964844 27.210938 -22.613281 27.210938 -23.324219 C 27.210938 -24.75 26.046875 -25.914062 24.621094 -25.914062 L 1.296875 -25.914062 L 1.296875 -20.734375 L 18.367188 -20.734375 L 2.074219 -4.4375 C 1.585938 -3.953125 1.296875 -3.304688 1.296875 -2.589844 C 1.296875 -1.167969 2.460938 0 3.886719 0 L 27.210938 0 Z M 27.210938 -5.183594" stroke-linecap="round" />
</g>
		<g transform="matrix(1.33 0 0 1.33 -10.3 10.63)"  >
<path style="stroke: none; stroke-width: 1; stroke-dasharray: none; stroke-linecap: butt; stroke-dashoffset: 0; stroke-linejoin: miter; stroke-miterlimit: 4; fill: rgb(255,255,255); fill-rule: nonzero; opacity: 1;" vector-effect="non-scaling-stroke"  transform=" translate(-14.25, 12.96)" d="M 27.210938 -25.914062 L 6.480469 -25.914062 C 3.628906 -25.914062 1.296875 -23.582031 1.296875 -20.734375 L 1.296875 -5.183594 C 1.296875 -2.332031 3.628906 0 6.480469 0 L 27.210938 0 L 27.210938 -5.183594 L 6.480469 -5.183594 L 6.480469 -10.367188 L 27.210938 -10.367188 L 27.210938 -15.550781 L 6.480469 -15.550781 L 6.480469 -20.734375 L 27.210938 -20.734375 Z M 27.210938 -25.914062" stroke-linecap="round" />
</g>
		<g transform="matrix(1.33 0 0 1.33 27.71 10.63)"  >
<path style="stroke: none; stroke-width: 1; stroke-dasharray: none; stroke-linecap: butt; stroke-dashoffset: 0; stroke-linejoin: miter; stroke-miterlimit: 4; fill: rgb(255,255,255); fill-rule: nonzero; opacity: 1;" vector-effect="non-scaling-stroke"  transform=" translate(-14.25, 12.96)" d="M 27.210938 -20.734375 C 27.210938 -23.582031 24.878906 -25.914062 22.027344 -25.914062 L 1.296875 -25.914062 L 1.296875 0 L 6.480469 0 L 6.480469 -10.367188 L 9.523438 -10.367188 L 19.113281 -0.777344 C 19.632812 -0.257812 20.277344 0 20.992188 0 L 27.210938 0 L 27.210938 -5.183594 L 22.027344 -5.183594 L 16.84375 -10.367188 L 22.027344 -10.367188 C 24.878906 -10.367188 27.210938 -12.699219 27.210938 -15.550781 Z M 22.027344 -20.734375 L 22.027344 -15.550781 L 6.480469 -15.550781 L 6.480469 -20.734375 Z M 22.027344 -20.734375" stroke-linecap="round" />
</g>
		<g transform="matrix(1.33 0 0 1.33 65.71 10.63)"  >
<path style="stroke: none; stroke-width: 1; stroke-dasharray: none; stroke-linecap: butt; stroke-dashoffset: 0; stroke-linejoin: miter; stroke-miterlimit: 4; fill: rgb(255,255,255); fill-rule: nonzero; opacity: 1;" vector-effect="non-scaling-stroke"  transform=" translate(-14.25, 12.96)" d="M 22.027344 0 C 24.910156 0 27.210938 -2.363281 27.210938 -5.183594 L 27.210938 -20.734375 C 27.210938 -23.582031 24.878906 -25.914062 22.027344 -25.914062 L 6.480469 -25.914062 C 3.628906 -25.914062 1.296875 -23.582031 1.296875 -20.734375 L 1.296875 -5.183594 C 1.296875 -2.332031 3.628906 0 6.480469 0 Z M 6.480469 -20.734375 L 22.027344 -20.734375 L 22.027344 -5.183594 L 6.480469 -5.183594 Z M 6.480469 -20.734375" stroke-linecap="round" />
</g>
</g>
</g>
</svg>